
CASCADE Topology V2, (c) Matra-Datavision
Locations 8
1
              1               0               0               0 
              0               1               0               0 
              0               0               1              20 
2  1 -1 0
1
              1               0               0               0 
              0               1               0               0 
              0               0               1            34.5 
2  3 -1 0
1
              1               0               0               0 
              0               1               0               0 
              0               0               1            34.5 
2  5 -1 0
1
              1               0               0               0 
              0               1               0               0 
              0               0               1              15 
2  7 -1 0
Curve2ds 74
2 104 4.3817504989994685e-15 1 -5.8226201321655722e-16 5.8226201321655722e-16 1 6.0000000000000009
1 6.2831853071795862 -81 -1 0 
2 11 -6 1 0 -0 1 11
1 6.2831853071795862 -24.5 -1 0 
8 -52 52
1 52 -6 -1 0 
8 -52 52
1 52 -81 1 0 
2 21 4.3817504989994685e-15 -1 -5.8226201321655722e-16 -5.8226201321655722e-16 1 6.0000000000000009
1 6.2831853071795862 -1 -1 0 
1 1.5707963267948959 0 0 -1 
1 0 0 0 -1 
8 -25.25 30.75
1 -31.75 -15.5 -1 0 
8 -25.25 30.75
1 31.75 -21 -1 0 
2 -6.5 -9.4999999999999964 0 -1 -1 -0 6.0000000000000009
1 6.2831853071795862 -21 -1 0 
8 -14.25 4.75
1 -0.5 -4.75 0 -1 
8 -14.25 4.75
1 4.75 -21 -1 0 
2 -6.5 9.4999999999999964 1 5.9211894646675012e-16 5.9211894646675012e-16 -1 6.0000000000000009
1 6.2831853071795862 -21 -1 0 
8 -59.25 -3.25
1 -3.25 15.5 1 0 
8 -59.25 -3.25
1 -3.25 -21 -1 0 
1 0 0 1 0 
8 6.5 20.5
1 55.5 0.5 0 -1 
8 6.5 20.5
1 1 -0.5 0 -1 
8 -80.5 -0.5
1 -0.5 -6 -1 0 
8 -80.5 -0.5
1 104 -0.5 0 1 
1 3.1415926535897931 56 0 1 
1 0 0 0 -1 
1 6.2831853071795862 0 0 -1 
1 0 -34.5 1 0 
1 0 0 1 0 
2 48 -31.500000000000004 -1 5.9211894646675012e-16 -5.9211894646675012e-16 -1 6.0000000000000009
1 6.2831853071795862 -7 -1 0 
8 -25.25 -6.25
1 42 -25.25 0 1 
8 -25.25 -6.25
1 25.25 -7 1 0 
2 48 -50.5 0 -1 1 0 6.0000000000000009
1 6.2831853071795862 -7 -1 0 
8 -51.5 4.5
1 52.5 -56.5 -1 -0 
8 -51.5 4.5
1 52.5 -7 1 0 
8 -114.5 -10.5
1 10.5 -6 -1 0 
8 -114.5 -10.5
1 -10.5 -1 -1 0 
1 0 0 0 -1 
1 6.2831853071795862 0 0 -1 
8 24 80
1 24 -25.5 1 0 
8 24 80
1 -24 -7 1 0 
2 9 -41 -1 -0 0 -1 7
1 6.2831853071795862 -7 -1 0 
2 114 -6 -1 0 0 1 11
1 6.2831853071795862 -10 -1 0 
1 0 0 0 -1 
2 12 -7 1 0 -0 1 6
1 6.2831853071795862 -66.5 -1 0 
1 1.5707963267948959 0 0 -1 
1 0 0 0 -1 
1 1.5707963267948959 0 0 -1 
8 -20.5 -6.5
1 24.5 0.5 0 1 
8 -20.5 -6.5
1 56 -0.5 0 1 
1 3.1415926535897931 -9.5 0 1 
1 0 -34.5 1 0 
2 45 -7 -1 0 0 1 6
1 6.2831853071795862 -35.5 -1 0 
1 0 0 0 -1 
1 6.2831853071795862 0 0 -1 
1 0 -15 1 0 
2 1.7763568394002505e-15 0 1 0 0 -1 6
1 6.2831853071795862 -101 -1 0 
1 0 0 1 0 
1 0 -7 0 -1 
1 6.2831853071795862 -7 0 -1 
1 0 -15 1 0 
1 0 -36 1 0 
1 0 0 0 -1 
1 6.2831853071795862 0 0 -1 
2 1.7763568394002505e-15 0 1 0 0 -1 6
1 6.2831853071795862 -1 -1 0 
Curves 53
2 104 -4.3817504989994685e-15 40 0 -0 -1 1 5.8226201321655722e-16 -0 5.8226201321655722e-16 -1 0 6.0000000000000009
1 0 0 40 1 0 0 
1 125 0 40 0 1 0 
1 0 20 20 1 0 0 
1 0 0 40 0 1 0 
2 11 6 40 0 0 -1 1 0 0 0 -1 0 11
1 52 6 40 -1 -0 -0 
2 104 -4.3817504989994685e-15 -40 0 -0 -1 1 5.8226201321655722e-16 -0 5.8226201321655722e-16 -1 0 6.0000000000000009
1 104 5.9999999999999982 -41 0 0 1 
1 110 -8.8817841970012523e-16 -41 0 0 1 
1 125 0 -40 -1 0 0 
1 125 0 40 0 0 -1 
1 125 0 -40 0 1 0 
1 125 20 20 0 0 -1 
1 0 20 -60 0 0 1 
1 30.75 20 15.5 -1 0 0 
2 56 20 9.4999999999999964 0 -1 0 0 0 1 -1 0 0 6.0000000000000009
1 62 20 4.75 0 -0 1 
1 125 20 -60 -1 0 0 
2 56 20 -9.4999999999999964 0 -1 0 1 0 -5.9211894646675012e-16 5.9211894646675012e-16 0 1 6.0000000000000009
1 59.25 20 -15.5 1 0 0 
2 95 20 0 -0 1 0 1 0 0 0 0 -1 10
1 0 -0.5 15.5 -0 1 0 
1 0 6 -40.5 0 0 -1 
1 22 6 15.5 0 0 1 
2 11 6 15.5 0 0 1 1 0 0 0 1 0 11
2 11 6 15.5 0 0 1 1 0 0 0 1 0 11
2 56 6 -9.4999999999999964 0 -1 0 1 0 -5.9211894646675012e-16 5.9211894646675012e-16 0 1 6.0000000000000009
1 62 6 -15.75 -0 -0 -1 
2 56 6 9.4999999999999964 0 -1 0 0 0 1 -1 0 0 6.0000000000000009
1 51.5 6 15.5 1 0 0 
1 114.5 6 -40 1 0 -0 
1 22 6 -50 0 0 1 
1 80 6 -15.5 -1 0 0 
2 95 6 0 0 -1 0 1 0 0 -0 0 1 7
2 11 6 -40 0 0 -1 1 0 0 0 -1 0 11
1 0 0 -40 0 1 0 
1 56 -1 15.499999999999998 0 1 0 
2 11 6 15.5 0 0 -1 1 0 0 0 -1 0 6
1 62 -1 9.5 0 1 0 
1 62 -1 -9.5 0 1 0 
1 56 -1 -15.499999999999998 0 1 0 
1 0 -0.5 -15.5 0 -1 0 
2 11 6 -50 0 0 1 1 0 0 0 1 0 11
2 11 6 -15.5 0 0 -1 1 0 0 0 -1 0 6
1 105 20 0 0 1 0 
2 95 35 -15 -0 1 0 1 0 0 0 0 -1 10
2 11 6 50 0 0 -1 1 0 0 0 -1 0 6
2 11 6 -50 0 0 1 1 0 0 0 1 0 11
8 0 29
1 102 6 0 0 1 0 
2 95 35 -15 -0 1 0 1 0 0 0 0 -1 7
1 17 6 -51 0 0 1 
2 11 6 -50 0 0 -1 1 0 0 0 -1 0 6
Polygon3D 0
PolygonOnTriangulations 0
Surfaces 25
1 0 0 40 0 0 -1 1 0 0 0 -1 0 
2 104 -4.3817504989994685e-15 -41 -0 -0 -1 1 5.8226201321655722e-16 0 -5.8226201321655722e-16 1 0 6.0000000000000009
2 11 6 15.5 -0 -0 -1 1 0 0 0 1 0 11
1 104 6 -41 0 -1 0 -1 0 0 -0 -0 -1 
1 125 0 -40 0 0 1 -1 0 0 0 -1 0 
1 110 -1 -41 -1 0 0 0 1 0 0 0 -1 
1 62.5 0 0 0 1 0 1 0 0 0 0 -1 
1 125 0 40 -1 0 0 0 0 -1 0 -1 0 
1 62.5 20 -20 0 1 0 1 0 0 0 0 -1 
1 -1 -1 15.5 0 0 -1 1 0 0 0 -1 0 
2 56 -1 9.4999999999999964 0 -1 0 0 0 1 1 0 0 6.0000000000000009
1 62 -1 9.5 -1 0 0 0 0 -1 0 -1 0 
2 56 -1 -9.4999999999999964 0 -1 0 1 0 -5.9211894646675012e-16 -5.9211894646675012e-16 0 -1 6.0000000000000009
1 56 -1 -15.5 0 0 1 -1 0 0 0 -1 0 
2 95 20 0 0 -1 0 1 0 0 0 0 -1 10
1 0 0 -40 1 0 0 0 0 1 0 -1 0 
2 11 6 -50 -0 -0 -1 1 0 0 0 1 0 11
2 95 -1 0 0 -1 0 1 0 0 0 0 -1 7
1 -1 -1 15.5 0 0 -1 1 0 0 0 -1 0 
2 11 6 -51 -0 -0 -1 1 0 0 0 1 0 6
1 56 -1 -15.5 0 0 1 -1 0 0 0 -1 0 
1 10.999999999999998 6 15.5 0 0 1 1 0 0 0 1 0 
2 95 20 0 0 -1 0 1 0 0 0 0 -1 7
1 10.999999999999998 6 -50 0 0 1 1 0 0 0 1 0 
1 95 35 -15 0 1 0 1 0 0 0 0 -1 
Triangulations 0

TShapes 151
Ve
7.68963110144122e-06
104 6 40
0 0

0101101
*
Ve
1.00000001332268e-07
110 -4.44089209850063e-16 40
0 0

0101101
*
Ed
 1e-07 1 1 0
1  1 0 4.71238898038469 6.28318530717959
2  1 1 0 4.71238898038469 6.28318530717959
104 -6 110 -5.813977392767e-16
2  2 2 0 4.71238898038469 6.28318530717959
1.5707963267949 -81 0 -81
0

0101000
+151 0 -150 0 *
Ve
1e-07
125 0 40
0 0

0101101
*
Ed
 1e-07 1 1 0
1  2 0 110 125
0

0101000
+150 0 -148 0 *
Ve
1e-07
125 20 40
0 0

0101101
*
Ed
 1e-07 1 1 0
1  3 0 0 20
0

0101000
+148 0 -146 0 *
Ve
1e-07
0 20 40
0 0

0101101
*
Ed
 1e-07 1 1 0
1  4 0 0 125
0

0101000
+144 2 -146 2 *
Ve
7.68963109966486e-06
0 6 40
0 0

0101101
*
Ed
 1e-07 1 1 0
1  5 0 6 20
0

0101000
+142 0 -144 0 *
Ve
7.68963109966486e-06
22 6 40
0 0

0101101
*
Ed
 1e-07 1 1 0
1  6 0 3.14159265358979 6.28318530717959
2  3 1 0 3.14159265358979 6.28318530717959
0 -6 22 -6
2  4 3 0 3.14159265358979 6.28318530717959
3.14159265358979 -24.5 0 -24.5
0

0101000
+142 0 -140 0 *
Ed
 7.68963109966486e-06 1 1 0
1  7 0 -52 30
2  5 1 0 -52 30
104 -6 22 -6
2  6 4 0 -52 30
0 -81 82 -81
0

0101000
+151 0 -140 0 *
Wi

0101100
-149 0 -147 0 -145 0 +143 1 +141 0 -139 0 +138 0 *
Fa
0  1e-07 1 0

0111000
+137 0 *
Ve
7.68963110144122e-06
104 6 -40
0 0

0101101
*
Ve
1.00000001332268e-07
110 -4.44089209850063e-16 -40
0 0

0101101
*
Ed
 1e-07 1 1 0
1  8 0 4.71238898038469 6.28318530717959
2  7 5 0 4.71238898038469 6.28318530717959
21 -6 15 -5.813977392767e-16
2  8 2 0 4.71238898038469 6.28318530717959
1.5707963267949 -1 0 -1
0

0101000
+135 0 -134 0 *
Ed
 1.00000001776357e-07 1 1 0
1  9 0 1 81
2  9 2 0 1 81
1.5707963267949 -1 1.5707963267949 -81
4 G1 2 0 4 0
0

0101000
+135 0 -151 0 *
Ed
 1.00000000888178e-07 1 1 0
1  10 0 1 81
2  10 2 0 1 81
0 -1 0 -81
4 G1 6 0 2 0
0

0101000
+134 0 -150 0 *
Wi

0101100
+133 0 -132 0 -149 0 +131 0 *
Fa
0  1e-07 2 0

0111000
+130 0 *
Ve
1e-07
125 0 -40
0 0

0101101
*
Ed
 1e-07 1 1 0
1  11 0 0 15
0

0101000
+128 0 -134 0 *
Ed
 1e-07 1 1 0
1  12 0 0 80
0

0101000
+148 0 -128 0 *
Wi

0101100
+131 0 +127 0 +126 0 +147 0 *
Fa
0  1e-07 7 0

0111000
+125 0 *
Ve
1e-07
125 20 -40
0 0

0101101
*
Ed
 1e-07 1 1 0
1  13 0 0 20
0

0101000
+128 0 -123 0 *
Ed
 1e-07 1 1 0
1  14 0 0 80
0

0101000
+146 2 -123 2 *
Wi

0101100
+145 0 -122 0 -126 0 +121 1 *
Fa
0  1e-07 8 0

0111000
+120 0 *
Ve
7.64338367169144e-06
0 20 15.5
0 0

0101101
*
Ed
 1e-07 1 1 0
1  15 0 55.5 80
0

0101000
+118 2 -144 2 *
Ve
7.6433836734678e-06
56 20 15.5
0 0

0101101
*
Ed
 7.64338367169144e-06 1 1 0
1  16 0 -25.25 30.75
2  11 9 1 -25.25 30.75
-6.5 -15.5 -62.5 -15.5
2  12 10 0 -25.25 30.75
57 -21 1 -21
0

0101000
+116 0 -118 0 *
Ve
7.64338367169144e-06
62 20 9.5
0 0

0101101
*
Ed
 1e-07 1 1 0
1  17 0 4.71238898038469 6.28318530717959
2  13 9 1 4.71238898038469 6.28318530717959
-0.499999999999999 -9.5 -6.5 -15.5
2  14 11 0 4.71238898038469 6.28318530717959
1.5707963267949 -21 0 -21
0

0101000
+114 0 -116 0 *
Ve
7.64338367169144e-06
62 20 -9.5
0 0

0101101
*
Ed
 7.64338367169144e-06 1 1 0
1  18 0 -14.25 4.75
2  15 9 1 -14.25 4.75
-0.5 9.5 -0.5 -9.5
2  16 12 0 -14.25 4.75
19 -21 0 -21
0

0101000
+112 0 -114 0 *
Ve
1e-07
0 20 -40
0 0

0101101
*
Ed
 1e-07 1 1 0
1  19 0 0 125
0

0101000
+123 2 -110 2 *
Ve
7.6433836734678e-06
56 20 -15.5
0 0

0101101
*
Ed
 1e-07 1 1 0
1  20 0 4.71238898038469 6.28318530717959
2  17 9 1 4.71238898038469 6.28318530717959
-6.5 15.5 -0.499999999999999 9.5
2  18 13 0 4.71238898038469 6.28318530717959
1.5707963267949 -21 0 -21
0

0101000
+108 0 -112 0 *
Ve
7.64338367169144e-06
0 20 -15.5
0 0

0101101
*
Ed
 1e-07 1 1 0
1  15 0 0 24.5
0

0101000
+110 2 -106 2 *
Ed
 7.64338367169144e-06 1 1 0
1  21 0 -59.25 -3.25
2  19 9 1 -59.25 -3.25
-62.5 15.5 -6.5 15.5
2  20 14 0 -59.25 -3.25
56 -21 0 -21
0

0101000
+106 0 -108 0 *
Wi

0101100
+117 1 +115 0 +143 1 +113 0 +121 1 +111 0 +109 1 +107 0 +105 1 +104 0 
*
Ve
1e-07
105 20 0
0 0

0101101
*
Ed
 1e-07 1 1 0
1  22 0 0 6.28318530717959
2  21 15 0 0 6.28318530717959
0 0 6.28318530717959 0
0

0101000
+102 0 -102 0 *
Wi

0101100
-101 0 *
Fa
0  1e-07 9 1

0111000
+103 0 +100 0 *
Ve
7.68963109966486e-06
0 6 15.5
0 0

0101101
*
Ed
 7.64338367169144e-06 1 1 0
1  23 0 6.5 20.5
2  22 16 0 6.5 20.5
55.5 -6 55.5 -20
2  23 10 0 6.5 20.5
1 -7 1 -21
0

0101000
+98 0 -118 0 *
Ed
 7.68963109966486e-06 1 1 0
1  24 0 -80.5 -56
2  24 16 0 -80.5 -56
80 -6 55.5 -6
2  25 4 0 -80.5 -56
104 -81 104 -56.5
2  26 3 0 -80.5 -56
3.14159265358979 -24.5 3.14159265358979 0
0

0101000
+142 0 -98 0 *
Wi

0101100
-141 0 +117 1 +97 0 +96 0 *
Fa
0  1e-07 16 0

0111000
+95 0 *
Ve
7.64338367169144e-06
22 6 15.5
0 0

0101101
*
Ed
 1e-07 1 1 0
1  25 0 0 24.5
3  27 28CN 3 0 0 24.5
6.28318530717959 0 6.28318530717959 -24.5
0

0101000
+93 0 -140 0 *
Ve
1e-07
22 6 50
0 0

0101101
*
Ed
 1e-07 1 1 0
1  25 0 24.5 34.5
3  27 28CN 3 0 24.5 34.5
6.28318530717959 -24.5 6.28318530717959 -34.5
0

0101000
+140 0 -91 0 *
Ed
 1e-07 1 1 0
1  26 0 0 6.28318530717959
2  29 3 4 0 6.28318530717959
0 -34.5 6.28318530717959 -34.5
0

0101000
+91 4 -91 4 *
Ed
 1e-07 1 1 0
1  27 0 3.14159265358979 6.28318530717959
2  30 3 0 3.14159265358979 6.28318530717959
3.14159265358979 0 6.28318530717959 0
0

0101000
+98 0 -93 0 *
Wi

0101100
-92 0 -90 0 +89 3 +90 0 +139 0 -96 0 -88 0 *
Fa
0  1e-07 3 0

0111000
+87 0 *
Ve
7.6433836734678e-06
56 6 -15.5
0 0

0101101
*
Ve
7.64338367169144e-06
62 6 -9.5
0 0

0101101
*
Ed
 1e-07 1 1 0
1  28 0 4.71238898038469 6.28318530717959
2  31 4 0 4.71238898038469 6.28318530717959
48 -25.5 42 -31.5
2  32 13 0 4.71238898038469 6.28318530717959
1.5707963267949 -7 0 -7
0

0101000
+85 0 -84 0 *
Ve
7.64338367169144e-06
62 6 9.5
0 0

0101101
*
Ed
 7.64338367169144e-06 1 1 0
1  29 0 -25.25 -6.25
2  33 4 0 -25.25 -6.25
42 -50.5 42 -31.5
2  34 12 0 -25.25 -6.25
0 -7 19 -7
0

0101000
+82 0 -84 0 *
Ve
7.6433836734678e-06
56 6 15.5
0 0

0101101
*
Ed
 1e-07 1 1 0
1  30 0 4.71238898038469 6.28318530717959
2  35 4 0 4.71238898038469 6.28318530717959
42 -50.5 48 -56.5
2  36 11 0 4.71238898038469 6.28318530717959
1.5707963267949 -7 0 -7
0

0101000
+82 0 -80 0 *
Ed
 7.64338367169144e-06 1 1 0
1  31 0 -29.5 4.5
2  37 4 0 -29.5 4.5
82 -56.5 48 -56.5
2  38 10 0 -29.5 4.5
23 -7 57 -7
0

0101000
+93 0 -80 0 *
Ve
7.68963109966486e-06
22 6 -40
0 0

0101101
*
Ed
 7.68963109966486e-06 1 1 0
1  32 0 -92.5 -10.5
2  39 5 0 -92.5 -10.5
103 -6 21 -6
2  40 4 0 -92.5 -10.5
82 -1 0 -1
0

0101000
+77 0 -135 0 *
Ve
7.64338367169144e-06
22 6 -15.5
0 0

0101101
*
Ed
 1e-07 1 1 0
1  33 0 10 34.5
3  41 42CN 17 0 10 34.5
6.28318530717959 -10 6.28318530717959 -34.5
0

0101000
+77 0 -75 0 *
Ed
 7.64338367169144e-06 1 1 0
1  34 0 24 58
2  43 4 0 24 58
48 -25.5 82 -25.5
2  44 14 0 24 58
0 -7 34 -7
0

0101000
+85 0 -75 0 *
Wi

0101100
-83 0 +81 0 -79 0 +78 0 -92 0 +138 0 +132 0 +76 0 -74 0 +73 0 
*
Ve
1.00000001714506e-07
102 6 0
0 0

0101101
*
Ed
 1e-07 1 1 0
1  35 0 0 6.28318530717959
2  45 4 0 0 6.28318530717959
2 -41 2 -41
2  46 18 0 0 6.28318530717959
6.28318530717959 -7 0 -7
0

0101000
+71 0 -71 0 *
Wi

0101100
-70 0 *
Fa
0  1e-07 4 0

0111000
+72 0 +69 0 *
Ve
7.68963109966486e-06
0 6 -40
0 0

0101101
*
Ed
 1e-07 1 1 0
1  36 0 3.14159265358979 6.28318530717959
2  47 5 0 3.14159265358979 6.28318530717959
125 -6 103 -6
2  48 17 0 3.14159265358979 6.28318530717959
3.14159265358979 -10 0 -10
0

0101000
+67 0 -77 0 *
Ed
 1e-07 1 1 0
1  37 0 6 20
0

0101000
+67 0 -110 0 *
Wi

0101100
-127 0 +133 0 +76 0 +66 0 -65 0 +109 1 +122 0 *
Fa
0  1e-07 5 0

0111000
+64 0 *
Ed
 1.00000001776357e-07 1 1 0
1  38 0 7 21
2  49 11 0 7 21
0 -7 0 -21
4 G1 10 0 11 0
0

0101000
+80 0 -116 0 *
Wi

0101100
-62 0 -78 0 -115 0 -88 0 +97 0 *
Ve
1.00000001776357e-07
17 6 15.5
0 0

0101101
*
Ed
 1e-07 1 1 0
1  39 0 0 6.28318530717959
2  50 19 0 0 6.28318530717959
18 -7 18 -7
2  51 20 0 0 6.28318530717959
6.28318530717959 -66.5 0 -66.5
0

0101000
+60 0 -60 0 *
Wi

0101100
-59 0 *
Fa
0  1e-07 19 0

0111000
+61 0 +58 0 *
Ed
 1e-07 1 1 0
1  40 0 7 21
2  52 11 0 7 21
1.5707963267949 -7 1.5707963267949 -21
4 G1 11 0 12 0
0

0101000
+82 0 -114 0 *
Wi

0101100
+79 0 -56 0 -113 0 +62 0 *
Fa
0  1e-07 11 0

0111000
+55 0 *
Ed
 1e-07 1 1 0
1  41 0 7 21
2  53 13 0 7 21
0 -7 0 -21
4 G1 12 0 13 0
0

0101000
+84 0 -112 0 *
Wi

0101100
-81 0 -53 0 -111 0 +56 0 *
Fa
0  1e-07 12 0

0111000
+52 0 *
Ed
 1.00000001776357e-07 1 1 0
1  42 0 7 21
2  54 13 0 7 21
1.5707963267949 -7 1.5707963267949 -21
4 G1 13 0 14 0
0

0101000
+85 0 -108 0 *
Wi

0101100
+83 0 -50 0 -107 0 +53 0 *
Fa
0  1e-07 13 0

0111000
+49 0 *
Ve
7.68963109966486e-06
0 6 -15.5
0 0

0101101
*
Ed
 7.64338367169144e-06 1 1 0
1  43 0 -20.5 -6.5
2  55 16 0 -20.5 -6.5
24.5 -20 24.5 -6
2  56 14 0 -20.5 -6.5
56 -21 56 -7
0

0101000
+106 0 -47 0 *
Ed
 7.68963109966486e-06 1 1 0
1  24 0 -25 -0.5
2  24 16 0 -25 -0.5
24.5 -6 0 -6
2  25 4 0 -25 -0.5
104 -25.5 104 -1
2  57 17 0 -25 -0.5
3.14159265358979 -34.5 3.14159265358979 -10
0

0101000
+47 0 -67 0 *
Wi

0101100
+46 0 +105 1 +65 0 +45 0 *
Fa
0  1e-07 16 0

0111000
+44 0 *
Ed
 1e-07 1 1 0
1  44 0 3.14159265358979 6.28318530717959
2  58 17 6 3.14159265358979 6.28318530717959
3.14159265358979 -34.5 6.28318530717959 -34.5
0

0101000
+47 6 -75 6 *
Wi

0101100
-73 0 +50 0 +42 5 -104 0 +46 0 *
Ve
1.00000001776357e-07
17 6 -15.5
0 0

0101101
*
Ed
 1e-07 1 1 0
1  45 0 0 6.28318530717959
2  59 21 0 0 6.28318530717959
39 -7 39 -7
2  60 20 0 0 6.28318530717959
6.28318530717959 -35.5 0 -35.5
0

0101000
+40 0 -40 0 *
Wi

0101100
+39 0 *
Fa
0  1e-07 21 0

0111000
+41 0 +38 0 *
Ve
1e-07
105 35 0
0 0

0101101
*
Ed
 1e-07 1 1 0
1  46 0 0 15
3  61 62CN 15 0 0 15
6.28318530717959 0 6.28318530717959 -15
0

0101000
+102 0 -36 0 *
Ed
 1e-07 1 1 0
1  47 0 0 6.28318530717959
2  63 15 8 0 6.28318530717959
0 -15 6.28318530717959 -15
0

0101000
+36 8 -36 8 *
Wi

0101100
+35 0 -35 0 -101 0 +34 7 *
Fa
0  1e-07 15 0

0111000
+33 0 *
Wi

0101100
+89 3 *
Ve
1.00000001776357e-07
17 6 50
0 0

0101101
*
Ed
 1e-07 1 1 0
1  48 0 0 6.28318530717959
2  64 22 3 0 6.28318530717959
6 0 6 1.46957615897682e-15
2  65 20 0 0 6.28318530717959
6.28318530717959 -101 0 -101
0

0101000
+30 0 -30 0 *
Wi

0101100
+29 0 *
Fa
0  1e-07 22 3

0111000
+31 0 +28 0 *
Ve
1e-07
22 6 -50
0 0

0101101
*
Ed
 1e-07 1 1 0
1  49 0 0 6.28318530717959
2  66 17 0 0 6.28318530717959
0 0 6.28318530717959 0
0

0101000
+26 0 -26 0 *
Ed
 1e-07 1 1 0
1  33 0 0 10
3  41 42CN 17 0 0 10
6.28318530717959 0 6.28318530717959 -10
0

0101000
+26 0 -77 0 *
Wi

0101100
-25 0 -24 0 -74 0 +42 5 -45 0 -66 0 +24 0 *
Fa
0  1e-07 17 0

0111000
+23 0 *
Ve
1e-07
102 35 0
0 0

0101101
*
Ed
 1e-07 1 1 0
1  50 0 0 29
3  67 68C0 18 0 0 29
6.28318530717959 -7 6.28318530717959 -36
0

0101000
+71 0 -21 0 *
Ed
 1e-07 1 1 0
1  51 0 0 6.28318530717959
2  69 23 8 0 6.28318530717959
0 -15 6.28318530717959 -15
2  70 18 8 0 6.28318530717959
0 -36 6.28318530717959 -36
0

0101000
+21 8 -21 8 *
Wi

0101100
+70 0 +20 0 +19 7 -20 0 *
Fa
0  0 18 0

0111000
+18 0 *
Ed
 1e-07 1 1 0
1  52 0 66.5 101
3  71 72CN 20 0 66.5 101
6.28318530717959 -66.5 6.28318530717959 -101
0

0101000
+60 0 -30 0 *
Wi

0101100
+59 0 -16 0 -29 0 +16 0 *
Fa
0  1e-07 20 0

0111000
+15 0 *
Ve
1.00000001776357e-07
17 6 -50
0 0

0101101
*
Ed
 1e-07 1 1 0
1  53 0 0 6.28318530717959
2  73 24 0 0 6.28318530717959
6 0 6 1.46957615897682e-15
2  74 20 0 0 6.28318530717959
6.28318530717959 -1 0 -1
0

0101000
+13 0 -13 0 *
Ed
 1e-07 1 1 0
1  52 0 1 35.5
3  71 72CN 20 0 1 35.5
6.28318530717959 -1 6.28318530717959 -35.5
0

0101000
+13 0 -40 0 *
Wi

0101100
+12 0 -11 0 -39 0 +11 0 *
Fa
0  1e-07 20 0

0111000
+10 0 *
Wi

0101100
+34 0 *
Wi

0101100
+19 0 *
Fa
0  1e-07 25 0

0111000
+8 0 -7 0 *
Wi

0101100
+25 0 *
Wi

0101100
+12 0 *
Fa
0  1e-07 24 0

0111000
+5 0 +4 0 *
Sh

0101100
-136 0 +129 0 -124 0 -119 0 +99 0 -94 0 -86 0 +68 0 -63 0 +57 0 
+54 0 +51 0 +48 0 -43 0 +37 0 -32 0 +27 0 -22 0 +17 0 +14 0 
+9 0 +6 7 -3 0 *
So

0100000
+2 0 *

+1 0 